<svg xmlns="http://www.w3.org/2000/svg" viewBox="0 0 512 512">
  <defs>
    <linearGradient id="plate" x1="0" y1="0" x2="1" y2="1">
      <stop stop-color="#102a43"/>
      <stop offset=".55" stop-color="#081827"/>
      <stop offset="1" stop-color="#050b14"/>
    </linearGradient>
    <linearGradient id="edge" x1=".08" y1="0" x2=".92" y2="1">
      <stop stop-color="#67e8f9"/>
      <stop offset=".5" stop-color="#38bdf8"/>
      <stop offset="1" stop-color="#6366f1"/>
    </linearGradient>
    <linearGradient id="gem" x1=".15" y1="0" x2=".85" y2="1">
      <stop stop-color="#dff9ff"/>
      <stop offset=".26" stop-color="#38bdf8"/>
      <stop offset=".62" stop-color="#075985"/>
      <stop offset="1" stop-color="#172554"/>
    </linearGradient>
    <filter id="glow" x="-50%" y="-50%" width="200%" height="200%">
      <feGaussianBlur stdDeviation="12" result="blur"/>
      <feMerge><feMergeNode in="blur"/><feMergeNode in="SourceGraphic"/></feMerge>
    </filter>
  </defs>
  <rect x="12" y="12" width="488" height="488" rx="118" fill="url(#plate)" stroke="url(#edge)" stroke-width="8"/>
  <path d="M58 150V84a26 26 0 0 1 26-26h66M362 58h66a26 26 0 0 1 26 26v66M454 362v66a26 26 0 0 1-26 26h-66M150 454H84a26 26 0 0 1-26-26v-66"
        fill="none" stroke="#67e8f9" stroke-opacity=".42" stroke-width="5"/>
  <g fill="#67e8f9" filter="url(#glow)">
    <circle cx="58" cy="196" r="7"/><circle cx="454" cy="196" r="7"/>
    <circle cx="196" cy="58" r="7"/><circle cx="316" cy="454" r="7"/>
  </g>
  <g filter="url(#glow)">
    <polygon points="256,78 414,218 256,434 98,218" fill="url(#gem)" stroke="#a5f3fc" stroke-width="5" stroke-linejoin="round"/>
    <polygon points="256,78 170,170 256,202 342,170" fill="#bae6fd" fill-opacity=".72"/>
    <polygon points="98,218 170,170 256,218" fill="#0ea5e9" fill-opacity=".62"/>
    <polygon points="414,218 342,170 256,218" fill="#2563eb" fill-opacity=".5"/>
    <polygon points="98,218 256,434 256,218" fill="#082f49"/>
    <polygon points="414,218 256,434 256,218" fill="#172554"/>
  </g>
  <g fill="none" stroke="#e0f2fe" stroke-opacity=".38" stroke-width="3">
    <path d="M170 170h172M98 218h316M256 78v356"/>
    <path d="m170 170 86 48 86-48M98 218l158-16 158 16"/>
  </g>
</svg>
